<svg width="1242" height="750" viewBox="0 0 1242 750" fill="none" xmlns="http://www.w3.org/2000/svg">
<g opacity="0.8">
<path opacity="0.5" d="M1 712.486L1241 712.486" stroke="#8A8A8A" stroke-opacity="0.15" stroke-width="2"/>
<path opacity="0.5" d="M1 587.486L1241 587.486" stroke="#8A8A8A" stroke-opacity="0.15" stroke-width="2"/>
<path opacity="0.5" d="M1 462.486L1241 462.486" stroke="#8A8A8A" stroke-opacity="0.15" stroke-width="2"/>
<path opacity="0.5" d="M1 337.486L1241 337.486" stroke="#8A8A8A" stroke-opacity="0.15" stroke-width="2"/>
<path opacity="0.5" d="M1 212.486L1241 212.486" stroke="#8A8A8A" stroke-opacity="0.15" stroke-width="2"/>
<path opacity="0.5" d="M1 87.4863L1241 87.4857" stroke="#8A8A8A" stroke-opacity="0.15" stroke-width="2"/>
</g>
<g opacity="0.8">
<path opacity="0.5" d="M1 -40.5693L1.00004 787.431" stroke="#8A8A8A" stroke-opacity="0.15" stroke-width="2"/>
<path opacity="0.5" d="M156 -40.5693L156 787.431" stroke="#8A8A8A" stroke-opacity="0.15" stroke-width="2"/>
<path opacity="0.5" d="M311 -40.5693L311 787.431" stroke="#8A8A8A" stroke-opacity="0.15" stroke-width="2"/>
<path opacity="0.5" d="M465.999 -41.5693L465.999 787.431" stroke="#8A8A8A" stroke-opacity="0.15" stroke-width="2"/>
<path opacity="0.5" d="M620.999 -41.5693L620.999 787.431" stroke="#8A8A8A" stroke-opacity="0.15" stroke-width="2"/>
<path opacity="0.5" d="M775.999 -41.5693L775.999 787.431" stroke="#8A8A8A" stroke-opacity="0.15" stroke-width="2"/>
<path opacity="0.5" d="M931 -41.5693L931 787.431" stroke="#8A8A8A" stroke-opacity="0.15" stroke-width="2"/>
<path opacity="0.5" d="M1086 -41.5693L1086 787.431" stroke="#8A8A8A" stroke-opacity="0.15" stroke-width="2"/>
<path opacity="0.5" d="M1241 -51.5693L1241 787.431" stroke="#8A8A8A" stroke-opacity="0.15" stroke-width="2"/>
</g>
</svg>
